<svg xmlns="http://www.w3.org/2000/svg" viewBox="0 0 96 136" id="house"><path fill="#762C07" d="M48 133L0 109V38l48 24z"></path><g fill="#F8EBCB" opacity=".3"><path d="M4 108l-3-1.5v2l3 1.5zM8 110l-3-1.5v2l3 1.5zM12 112l-3-1.5v2l3 1.5zM16 114l-3-1.5v2l3 1.5zM20 116l-3-1.5v2l3 1.5zM24 118l-3-1.5v2l3 1.5zM28 120l-3-1.5v2l3 1.5zM32 122l-3-1.5v2l3 1.5zM36 124l-3-1.5v2l3 1.5zM40 126l-3-1.5v2l3 1.5zM44 128l-3-1.5v2l3 1.5zM48 130l-3-1.5v2l3 1.5zM2 104l-2-1v2l2 1zM6 106l-3-1.5v2l3 1.5zM10 108l-3-1.5v2l3 1.5zM14 110l-3-1.5v2l3 1.5zM18 112l-3-1.5v2l3 1.5zM22 114l-3-1.5v2l3 1.5zM26 116l-3-1.5v2l3 1.5zM30 118l-3-1.5v2l3 1.5zM34 120l-3-1.5v2l3 1.5zM38 122l-3-1.5v2l3 1.5zM42 124l-3-1.5v2l3 1.5zM46 126l-3-1.5v2l3 1.5zM48 127l-1-.5v2l1 .5zM4 102l-3-1.5v2l3 1.5zM8 104l-3-1.5v2l3 1.5zM12 106l-3-1.5v2l3 1.5zM16 108l-3-1.5v2l3 1.5zM20 110l-3-1.5v2l3 1.5zM24 112l-3-1.5v2l3 1.5zM28 114l-3-1.5v2l3 1.5zM32 116l-3-1.5v2l3 1.5zM36 118l-3-1.5v2l3 1.5zM40 120l-3-1.5v2l3 1.5zM44 122l-3-1.5v2l3 1.5zM48 124l-3-1.5v2l3 1.5zM2 98l-2-1v2l2 1zM6 100l-3-1.5v2l3 1.5zM10 102l-3-1.5v2l3 1.5zM14 104l-3-1.5v2l3 1.5zM18 106l-3-1.5v2l3 1.5zM22 108l-3-1.5v2l3 1.5zM26 110l-3-1.5v2l3 1.5zM30 112l-3-1.5v2l3 1.5zM34 114l-3-1.5v2l3 1.5zM38 116l-3-1.5v2l3 1.5zM42 118l-3-1.5v2l3 1.5zM46 120l-3-1.5v2l3 1.5zM48 121l-1-.5v2l1 .5zM4 96l-3-1.5v2L4 98zM8 98l-3-1.5v2l3 1.5zM12 100l-3-1.5v2l3 1.5zM16 102l-3-1.5v2l3 1.5zM20 104l-3-1.5v2l3 1.5zM24 106l-3-1.5v2l3 1.5zM28 108l-3-1.5v2l3 1.5zM32 110l-3-1.5v2l3 1.5zM36 112l-3-1.5v2l3 1.5zM40 114l-3-1.5v2l3 1.5zM44 116l-3-1.5v2l3 1.5zM48 118l-3-1.5v2l3 1.5zM2 92l-2-1v2l2 1zM6 94l-3-1.5v2L6 96zM10 96l-3-1.5v2l3 1.5zM14 98l-3-1.5v2l3 1.5zM18 100l-3-1.5v2l3 1.5zM22 102l-3-1.5v2l3 1.5zM26 104l-3-1.5v2l3 1.5zM30 106l-3-1.5v2l3 1.5zM34 108l-3-1.5v2l3 1.5zM38 110l-3-1.5v2l3 1.5zM42 112l-3-1.5v2l3 1.5zM46 114l-3-1.5v2l3 1.5zM48 115l-1-.5v2l1 .5zM4 90l-3-1.5v2L4 92zM8 92l-3-1.5v2L8 94zM12 94l-3-1.5v2l3 1.5zM16 96l-3-1.5v2l3 1.5zM20 98l-3-1.5v2l3 1.5zM24 100l-3-1.5v2l3 1.5zM28 102l-3-1.5v2l3 1.5zM32 104l-3-1.5v2l3 1.5zM36 106l-3-1.5v2l3 1.5zM40 108l-3-1.5v2l3 1.5zM44 110l-3-1.5v2l3 1.5zM48 112l-3-1.5v2l3 1.5zM2 86l-2-1v2l2 1zM6 88l-3-1.5v2L6 90zM10 90l-3-1.5v2l3 1.5zM14 92l-3-1.5v2l3 1.5zM18 94l-3-1.5v2l3 1.5zM22 96l-3-1.5v2l3 1.5zM26 98l-3-1.5v2l3 1.5zM30 100l-3-1.5v2l3 1.5zM34 102l-3-1.5v2l3 1.5zM38 104l-3-1.5v2l3 1.5zM42 106l-3-1.5v2l3 1.5zM46 108l-3-1.5v2l3 1.5zM48 109l-1-.5v2l1 .5zM4 84l-3-1.5v2L4 86zM8 86l-3-1.5v2L8 88zM12 88l-3-1.5v2l3 1.5zM16 90l-3-1.5v2l3 1.5zM20 92l-3-1.5v2l3 1.5zM24 94l-3-1.5v2l3 1.5zM28 96l-3-1.5v2l3 1.5zM32 98l-3-1.5v2l3 1.5zM36 100l-3-1.5v2l3 1.5zM40 102l-3-1.5v2l3 1.5zM44 104l-3-1.5v2l3 1.5zM48 106l-3-1.5v2l3 1.5zM2 80l-2-1v2l2 1zM6 82l-3-1.5v2L6 84zM10 84l-3-1.5v2l3 1.5zM14 86l-3-1.5v2l3 1.5zM18 88l-3-1.5v2l3 1.5zM22 90l-3-1.5v2l3 1.5zM26 92l-3-1.5v2l3 1.5zM30 94l-3-1.5v2l3 1.5zM34 96l-3-1.5v2l3 1.5zM38 98l-3-1.5v2l3 1.5zM42 100l-3-1.5v2l3 1.5zM46 102l-3-1.5v2l3 1.5zM48 103l-1-.5v2l1 .5zM4 78l-3-1.5v2L4 80zM8 80l-3-1.5v2L8 82zM12 82l-3-1.5v2l3 1.5zM16 84l-3-1.5v2l3 1.5zM20 86l-3-1.5v2l3 1.5zM24 88l-3-1.5v2l3 1.5zM28 90l-3-1.5v2l3 1.5zM32 92l-3-1.5v2l3 1.5zM36 94l-3-1.5v2l3 1.5zM40 96l-3-1.5v2l3 1.5zM44 98l-3-1.5v2l3 1.5zM48 100l-3-1.5v2l3 1.5zM2 74l-2-1v2l2 1zM6 76l-3-1.5v2L6 78zM10 78l-3-1.5v2l3 1.5zM14 80l-3-1.5v2l3 1.5zM18 82l-3-1.5v2l3 1.5zM22 84l-3-1.5v2l3 1.5zM26 86l-3-1.5v2l3 1.5zM30 88l-3-1.5v2l3 1.5zM34 90l-3-1.5v2l3 1.5zM38 92l-3-1.5v2l3 1.5zM42 94l-3-1.5v2l3 1.5zM46 96l-3-1.5v2l3 1.5zM48 97l-1-.5v2l1 .5zM4 72l-3-1.5v2L4 74zM8 74l-3-1.5v2L8 76zM12 76l-3-1.5v2l3 1.5zM16 78l-3-1.5v2l3 1.5zM20 80l-3-1.5v2l3 1.5zM24 82l-3-1.5v2l3 1.5zM28 84l-3-1.5v2l3 1.5zM32 86l-3-1.5v2l3 1.5zM36 88l-3-1.5v2l3 1.5zM40 90l-3-1.5v2l3 1.5zM44 92l-3-1.5v2l3 1.5zM48 94l-3-1.5v2l3 1.5zM2 68l-2-1v2l2 1zM6 70l-3-1.5v2L6 72zM10 72l-3-1.5v2l3 1.5zM14 74l-3-1.5v2l3 1.5zM18 76l-3-1.5v2l3 1.5zM22 78l-3-1.5v2l3 1.5zM26 80l-3-1.5v2l3 1.5zM30 82l-3-1.5v2l3 1.5zM34 84l-3-1.5v2l3 1.5zM38 86l-3-1.5v2l3 1.5zM42 88l-3-1.5v2l3 1.5zM46 90l-3-1.5v2l3 1.5zM48 91l-1-.5v2l1 .5zM4 66l-3-1.5v2L4 68zM8 68l-3-1.5v2L8 70zM12 70l-3-1.5v2l3 1.5zM16 72l-3-1.5v2l3 1.5zM20 74l-3-1.5v2l3 1.5zM24 76l-3-1.5v2l3 1.5zM28 78l-3-1.5v2l3 1.5zM32 80l-3-1.5v2l3 1.5zM36 82l-3-1.5v2l3 1.5zM40 84l-3-1.5v2l3 1.5zM44 86l-3-1.5v2l3 1.5zM48 88l-3-1.5v2l3 1.5zM2 62l-2-1v2l2 1zM6 64l-3-1.5v2L6 66zM10 66l-3-1.5v2l3 1.5zM14 68l-3-1.5v2l3 1.5zM18 70l-3-1.5v2l3 1.5zM22 72l-3-1.5v2l3 1.5zM26 74l-3-1.5v2l3 1.5zM30 76l-3-1.5v2l3 1.5zM34 78l-3-1.5v2l3 1.5zM38 80l-3-1.5v2l3 1.5zM42 82l-3-1.5v2l3 1.5zM46 84l-3-1.5v2l3 1.5zM48 85l-1-.5v2l1 .5zM4 60l-3-1.5v2L4 62zM8 62l-3-1.5v2L8 64zM12 64l-3-1.5v2l3 1.5zM16 66l-3-1.5v2l3 1.5zM20 68l-3-1.5v2l3 1.5zM24 70l-3-1.5v2l3 1.5zM28 72l-3-1.5v2l3 1.5zM32 74l-3-1.5v2l3 1.5zM36 76l-3-1.5v2l3 1.5zM40 78l-3-1.5v2l3 1.5zM44 80l-3-1.5v2l3 1.5zM48 82l-3-1.5v2l3 1.5zM2 56l-2-1v2l2 1zM6 58l-3-1.5v2L6 60zM10 60l-3-1.5v2l3 1.5zM14 62l-3-1.5v2l3 1.5zM18 64l-3-1.5v2l3 1.5zM22 66l-3-1.5v2l3 1.5zM26 68l-3-1.5v2l3 1.5zM30 70l-3-1.5v2l3 1.5zM34 72l-3-1.5v2l3 1.5zM38 74l-3-1.5v2l3 1.5zM42 76l-3-1.5v2l3 1.5zM46 78l-3-1.5v2l3 1.5zM48 79l-1-.5v2l1 .5zM4 54l-3-1.5v2L4 56zM8 56l-3-1.5v2L8 58zM12 58l-3-1.5v2l3 1.5zM16 60l-3-1.5v2l3 1.5zM20 62l-3-1.5v2l3 1.5zM24 64l-3-1.5v2l3 1.5zM28 66l-3-1.5v2l3 1.5zM32 68l-3-1.5v2l3 1.5zM36 70l-3-1.5v2l3 1.5zM40 72l-3-1.5v2l3 1.5zM44 74l-3-1.5v2l3 1.5zM48 76l-3-1.5v2l3 1.5zM2 50l-2-1v2l2 1zM6 52l-3-1.5v2L6 54zM10 54l-3-1.5v2l3 1.5zM14 56l-3-1.5v2l3 1.5zM18 58l-3-1.5v2l3 1.5zM22 60l-3-1.5v2l3 1.5zM26 62l-3-1.5v2l3 1.5zM30 64l-3-1.5v2l3 1.5zM34 66l-3-1.5v2l3 1.5zM38 68l-3-1.5v2l3 1.5zM42 70l-3-1.5v2l3 1.5zM46 72l-3-1.5v2l3 1.5zM48 73l-1-.5v2l1 .5zM4 48l-3-1.5v2L4 50zM8 50l-3-1.5v2L8 52zM12 52l-3-1.5v2l3 1.5zM16 54l-3-1.5v2l3 1.5zM20 56l-3-1.5v2l3 1.5zM24 58l-3-1.5v2l3 1.5zM28 60l-3-1.5v2l3 1.5zM32 62l-3-1.5v2l3 1.5zM36 64l-3-1.5v2l3 1.5zM40 66l-3-1.5v2l3 1.5zM44 68l-3-1.5v2l3 1.5zM48 70l-3-1.5v2l3 1.5zM2 44l-2-1v2l2 1zM6 46l-3-1.5v2L6 48zM10 48l-3-1.5v2l3 1.5zM14 50l-3-1.5v2l3 1.5zM18 52l-3-1.5v2l3 1.5zM22 54l-3-1.5v2l3 1.5zM26 56l-3-1.5v2l3 1.5zM30 58l-3-1.5v2l3 1.5zM34 60l-3-1.5v2l3 1.5zM38 62l-3-1.5v2l3 1.5zM42 64l-3-1.5v2l3 1.5zM46 66l-3-1.5v2l3 1.5zM48 67l-1-.5v2l1 .5zM4 42l-3-1.5v2L4 44zM8 44l-3-1.5v2L8 46zM12 46l-3-1.5v2l3 1.5zM16 48l-3-1.5v2l3 1.5zM20 50l-3-1.5v2l3 1.5zM24 52l-3-1.5v2l3 1.5zM28 54l-3-1.5v2l3 1.5zM32 56l-3-1.5v2l3 1.5zM36 58l-3-1.5v2l3 1.5zM40 60l-3-1.5v2l3 1.5zM44 62l-3-1.5v2l3 1.5zM48 64l-3-1.5v2l3 1.5z"></path></g><path fill="#BAA794" d="M44 99l-9-4.5v-13l9 4.5z"></path><path fill="#39C" d="M36 83v11l3 1.5v-11z"></path><path fill="#FFF" d="M36 88v6l3 1.5z" opacity=".2"></path><path fill="#39C" d="M40 85v11l3 1.5v-11z"></path><path d="M39 85.5L36 84v-1l3 1.5zM43 87.5L40 86v-1l3 1.5z" opacity=".15"></path><path d="M43 94.5L40 86v-1l3 1.5z" opacity=".15"></path><path fill="#BAA794" d="M43 90.5L36 87v-1l7 3.5zM43 94.5L36 91v-1l7 3.5z"></path><path fill="#F8EBCB" d="M44 86l-9-4.5v-2l9 4.5zM44 100l-9-4.5v-1l9 4.5z"></path><path fill="#BAA794" d="M44 79l-9-4.5v-13l9 4.5z"></path><path fill="#39C" d="M36 63v11l3 1.5v-11z"></path><path fill="#FFF" d="M36 68v6l3 1.5z" opacity=".2"></path><path fill="#39C" d="M40 65v11l3 1.5v-11z"></path><path d="M39 65.5L36 64v-1l3 1.5zM43 67.5L40 66v-1l3 1.5z" opacity=".15"></path><path d="M43 74.5L40 66v-1l3 1.5z" opacity=".15"></path><path fill="#BAA794" d="M43 70.5L36 67v-1l7 3.5zM43 74.5L36 71v-1l7 3.5z"></path><path fill="#F8EBCB" d="M44 66l-9-4.5v-1l9 4.5zM44 80l-9-4.5v-1l9 4.5z"></path><g fill="#F8EBCB" opacity=".3"><path d="M4 108l-3-1.5v2l3 1.5zM48 130l-3-1.5v2l3 1.5zM2 104l-2-1v2l2 1zM48 127l-1-.5v2l1 .5zM4 102l-3-1.5v2l3 1.5zM48 124l-3-1.5v2l3 1.5zM2 98l-2-1v2l2 1zM48 121l-1-.5v2l1 .5zM4 96l-3-1.5v2L4 98zM48 118l-3-1.5v2l3 1.5zM2 92l-2-1v2l2 1zM48 115l-1-.5v2l1 .5zM4 90l-3-1.5v2L4 92zM48 112l-3-1.5v2l3 1.5zM2 86l-2-1v2l2 1zM48 109l-1-.5v2l1 .5zM4 84l-3-1.5v2L4 86zM48 106l-3-1.5v2l3 1.5zM2 80l-2-1v2l2 1zM48 103l-1-.5v2l1 .5zM4 78l-3-1.5v2L4 80zM48 100l-3-1.5v2l3 1.5zM2 74l-2-1v2l2 1zM48 97l-1-.5v2l1 .5zM4 72l-3-1.5v2L4 74zM48 94l-3-1.5v2l3 1.5zM2 68l-2-1v2l2 1zM48 91l-1-.5v2l1 .5zM4 66l-3-1.5v2L4 68zM48 88l-3-1.5v2l3 1.5zM2 62l-2-1v2l2 1zM48 85l-1-.5v2l1 .5zM4 60l-3-1.5v2L4 62zM48 82l-3-1.5v2l3 1.5zM2 56l-2-1v2l2 1zM48 79l-1-.5v2l1 .5zM4 54l-3-1.5v2L4 56zM48 76l-3-1.5v2l3 1.5zM2 50l-2-1v2l2 1zM48 73l-1-.5v2l1 .5zM4 48l-3-1.5v2L4 50zM48 70l-3-1.5v2l3 1.5zM2 44l-2-1v2l2 1zM48 67l-1-.5v2l1 .5zM4 42l-3-1.5v2L4 44zM48 64l-3-1.5v2l3 1.5z"></path></g><path fill="#BAA794" d="M13 83.5L4 79V66l9 4.5z"></path><path fill="#39C" d="M5 67.5v11L8 80V69z"></path><path fill="#FFF" d="M5 72.5v6L8 80z" opacity=".2"></path><path fill="#39C" d="M9 69.5v11l3 1.5V71z"></path><path d="M8 70l-3-1.5v-1L8 69zM12 72l-3-1.5v-1l3 1.5z" opacity=".15"></path><path d="M12 79l-3-8.5v-1l3 1.5z" opacity=".15"></path><path fill="#BAA794" d="M12 75l-7-3.5v-1l7 3.5zM12 79l-7-3.5v-1l7 3.5z"></path><path fill="#F8EBCB" d="M13 70.5L4 66v-2l9 4.5zM13 84.5L4 80v-1l9 4.5z"></path><g><path fill="#BAA794" d="M13 104.5L4 100V87l9 4.5z"></path><path fill="#39C" d="M5 88.5v11l3 1.5V90z"></path><path fill="#FFF" d="M5 93.5v6l3 1.5z" opacity=".2"></path><path fill="#39C" d="M9 90.5v11l3 1.5V92z"></path><path d="M8 91l-3-1.5v-1L8 90zM12 93l-3-1.5v-1l3 1.5z" opacity=".15"></path><path d="M12 100l-3-8.5v-1l3 1.5z" opacity=".15"></path><path fill="#BAA794" d="M12 96l-7-3.5v-1l7 3.5zM12 100l-7-3.5v-1l7 3.5z"></path><path fill="#F8EBCB" d="M13 91.5L4 87v-1h4l1 .5 4 4zM13 105.5L4 101v-1l9 4.5z"></path></g><g><path fill="#BAA794" d="M26 90l-9-4.5v-13l9 4.5z"></path><path fill="#39C" d="M18 74v11l3 1.5v-11z"></path><path fill="#FFF" d="M18 79v6l3 1.5z" opacity=".2"></path><path fill="#39C" d="M22 76v11l3 1.5v-11z"></path><path d="M21 76.5L18 75v-1l3 1.5zM25 78.5L22 77v-1l3 1.5z" opacity=".15"></path><path d="M25 85.5L22 77v-1l3 1.5z" opacity=".15"></path><path fill="#BAA794" d="M25 81.5L18 78v-1l7 3.5zM25 85.5L18 82v-1l7 3.5z"></path><path fill="#F8EBCB" d="M26 77l-9-4.5v-2l9 4.5zM26 91l-9-4.5v-1l9 4.5z"></path></g><g><path fill="#BAA794" d="M13 63.5L4 59V46l9 4.5z"></path><path fill="#39C" d="M5 47.5v11L8 60V49z"></path><path fill="#FFF" d="M5 52.5v6L8 60z" opacity=".2"></path><path fill="#39C" d="M9 49.5v11l3 1.5V51z"></path><path d="M8 50l-3-1.5v-1L8 49zM12 52l-3-1.5v-1l3 1.5z" opacity=".15"></path><path d="M12 59l-3-8.5v-1l3 1.5z" opacity=".15"></path><path fill="#BAA794" d="M12 55l-7-3.5v-1l7 3.5zM12 59l-7-3.5v-1l7 3.5z"></path><path fill="#F8EBCB" d="M13 50.5L4 46v-1l9 4.5zM13 64.5L4 60v-1l9 4.5z"></path></g><g><path fill="#BAA794" d="M26 70l-9-4.5v-13l9 4.5z"></path><path fill="#39C" d="M18 54v11l3 1.5v-11z"></path><path fill="#FFF" d="M18 59v6l3 1.5z" opacity=".2"></path><path fill="#39C" d="M22 56v11l3 1.5v-11z"></path><path d="M21 56.5L18 55v-1l3 1.5zM25 58.5L22 57v-1l3 1.5z" opacity=".15"></path><path d="M25 65.5L22 57v-1l3 1.5z" opacity=".15"></path><path fill="#BAA794" d="M25 61.5L18 58v-1l7 3.5zM25 65.5L18 62v-1l7 3.5z"></path><path fill="#F8EBCB" d="M26 57l-9-4.5v-1l9 4.5zM26 71l-9-4.5v-1l9 4.5z"></path></g><g><path fill="#BAA794" d="M26 111l-9-4.5v-13l9 4.5z"></path><path fill="#39C" d="M18 95v11l3 1.5v-11z"></path><path fill="#FFF" d="M18 100v6l3 1.5z" opacity=".2"></path><path fill="#39C" d="M22 97v11l3 1.5v-11z"></path><path d="M21 97.5L18 96v-1l3 1.5zM25 99.5L22 98v-1l3 1.5z" opacity=".15"></path><path d="M25 106.5L22 98v-1l3 1.5z" opacity=".15"></path><path fill="#BAA794" d="M25 102.5L18 99v-1l7 3.5zM25 106.5l-7-3.5v-1l7 3.5z"></path><path fill="#F8EBCB" d="M26 98l-9-4.5v-1h4l1 .5 4 4zM26 112l-9-4.5v-1l9 4.5z"></path></g><path fill="#F8EBCB" d="M48 136L0 112v-3l48 24zM48 63L0 39v-1l48 24z"></path><path d="M48 136L0 112V38l48 24z" opacity=".06"></path><path fill="#762C07" d="M40 124l-8 4V99l8 4z"></path><path fill="#F8EBCB" d="M40 124l-8 4v-3l8-4zM40 121l6 3v-18l-6-3z"></path><g fill="#F8EBCB" opacity=".3"><path d="M32 104v2l2-1v-2zM32 110v2l2-1v-2zM33 106.5v2l3-1.5v-2zM33 100.5v2l3-1.5-2-1zM33 112.5v2l3-1.5v-2zM33 118.5v2l3-1.5v-2zM37 104.5v2l3-1.5v-2zM37 110.5v2l3-1.5v-2zM37 116.5v2l3-1.5v-2zM32 116v2l2-1v-2zM32 122v2l2-1v-2zM35 102.5v2l3-1.5v-1l-1-.5zM35 108.5v2l3-1.5v-2zM35 114.5v2l3-1.5v-2zM35 120.5v2l3-1.5v-2zM39 118.5v2l1-.5v-2zM39 112.5v2l1-.5v-2zM39 106.5v2l1-.5v-2z"></path></g><path d="M40 124l-8 4V99l8 4z" opacity=".39"></path><path d="M46 108v-1l-1-.5-1-.5-3-1.5v16l3 1.5 1 .5 1 .5v-1l-1-.5v-14l1 .5zm-2 13l-2-1v-14l2 1v14z" opacity=".15"></path><path fill="#39C" d="M42 106v7l2 1v-7z"></path><path d="M44 108l-2-1v-1l2 1z" opacity=".15"></path><path fill="#39C" d="M43 106.5v7l1 .5v-7z"></path><path d="M44 108l-1-.5v-1l1 .5z" opacity=".15"></path><path d="M46 109l-6-3v-3l6 3z" opacity=".15"></path><path d="M46 107l-6-3v-1l6 3z" opacity=".15"></path><path d="M40 121l6 3v-18l-6-3z" opacity=".06"></path><g><path fill="#BAA794" d="M46 135l-14-7v-1l2-1v-1l2-1v-1l4-2 6 3z"></path><g opacity=".3"><path d="M46 128l-10-5v1l10 5zM46 131l-12-6v1l12 6zM46 134l-14-7v1l14 7z" opacity=".3"></path></g><path d="M46 128l-10-5v1l10 5zM46 131l-12-6v1l12 6zM46 134l-14-7v1l14 7z" opacity=".06"></path><path fill="#2D3134" d="M42 122l-2 1 6 3v-2z"></path></g><g><path fill="#762C07" d="M96 110l-48 24V62l24-36 24 12z"></path><g fill="#F8EBCB" opacity=".3"><path d="M52 128l-3 1.5v2l3-1.5zM56 126l-3 1.5v2l3-1.5zM60 124l-3 1.5v2l3-1.5zM64 122l-3 1.5v2l3-1.5zM68 120l-3 1.5v2l3-1.5zM72 118l-3 1.5v2l3-1.5zM76 116l-3 1.5v2l3-1.5zM80 114l-3 1.5v2l3-1.5zM84 112l-3 1.5v2l3-1.5zM88 110l-3 1.5v2l3-1.5zM92 108l-3 1.5v2l3-1.5zM96 106l-3 1.5v2l3-1.5zM50 126l-2 1v2l2-1zM54 124l-3 1.5v2l3-1.5zM58 122l-3 1.5v2l3-1.5zM62 120l-3 1.5v2l3-1.5zM66 118l-3 1.5v2l3-1.5zM70 116l-3 1.5v2l3-1.5zM74 114l-3 1.5v2l3-1.5zM78 112l-3 1.5v2l3-1.5zM82 110l-3 1.5v2l3-1.5zM86 108l-3 1.5v2l3-1.5zM90 106l-3 1.5v2l3-1.5zM94 104l-3 1.5v2l3-1.5zM96 103l-1 .5v2l1-.5zM52 122l-3 1.5v2l3-1.5zM56 120l-3 1.5v2l3-1.5zM60 118l-3 1.5v2l3-1.5zM64 116l-3 1.5v2l3-1.5zM68 114l-3 1.5v2l3-1.5zM72 112l-3 1.5v2l3-1.5zM76 110l-3 1.5v2l3-1.5zM80 108l-3 1.5v2l3-1.5zM84 106l-3 1.5v2l3-1.5zM88 104l-3 1.5v2l3-1.5zM92 102l-3 1.5v2l3-1.5zM96 100l-3 1.5v2l3-1.5zM50 120l-2 1v2l2-1zM54 118l-3 1.5v2l3-1.5zM58 116l-3 1.5v2l3-1.5zM62 114l-3 1.5v2l3-1.5zM66 112l-3 1.5v2l3-1.5zM70 110l-3 1.5v2l3-1.5zM74 108l-3 1.5v2l3-1.5zM78 106l-3 1.5v2l3-1.5zM82 104l-3 1.5v2l3-1.5zM86 102l-3 1.5v2l3-1.5zM90 100l-3 1.5v2l3-1.5zM94 98l-3 1.5v2l3-1.5zM96 97l-1 .5v2l1-.5zM52 116l-3 1.5v2l3-1.5zM56 114l-3 1.5v2l3-1.5zM60 112l-3 1.5v2l3-1.5zM64 110l-3 1.5v2l3-1.5zM68 108l-3 1.5v2l3-1.5zM72 106l-3 1.5v2l3-1.5zM76 104l-3 1.5v2l3-1.5zM80 102l-3 1.5v2l3-1.5zM84 100l-3 1.5v2l3-1.5zM88 98l-3 1.5v2l3-1.5zM92 96l-3 1.5v2l3-1.5zM96 94l-3 1.5v2l3-1.5zM50 114l-2 1v2l2-1zM54 112l-3 1.5v2l3-1.5zM58 110l-3 1.5v2l3-1.5zM62 108l-3 1.5v2l3-1.5zM66 106l-3 1.5v2l3-1.5zM70 104l-3 1.5v2l3-1.5zM74 102l-3 1.5v2l3-1.5zM78 100l-3 1.5v2l3-1.5zM82 98l-3 1.5v2l3-1.5zM86 96l-3 1.5v2l3-1.5zM90 94l-3 1.5v2l3-1.5zM94 92l-3 1.5v2l3-1.5zM96 91l-1 .5v2l1-.5zM52 110l-3 1.5v2l3-1.5zM56 108l-3 1.5v2l3-1.5zM60 106l-3 1.5v2l3-1.5zM64 104l-3 1.5v2l3-1.5zM68 102l-3 1.5v2l3-1.5zM72 100l-3 1.5v2l3-1.5zM76 98l-3 1.5v2l3-1.5zM80 96l-3 1.5v2l3-1.5zM84 94l-3 1.5v2l3-1.5zM88 92l-3 1.5v2l3-1.5zM92 90l-3 1.5v2l3-1.5zM96 88l-3 1.5v2l3-1.5zM50 108l-2 1v2l2-1zM54 106l-3 1.5v2l3-1.5zM58 104l-3 1.5v2l3-1.5zM62 102l-3 1.5v2l3-1.5zM66 100l-3 1.5v2l3-1.5zM70 98l-3 1.5v2l3-1.5zM74 96l-3 1.5v2l3-1.5zM78 94l-3 1.5v2l3-1.5zM82 92l-3 1.5v2l3-1.5zM86 90l-3 1.5v2l3-1.5zM90 88l-3 1.5v2l3-1.5zM94 86l-3 1.5v2l3-1.5zM96 85l-1 .5v2l1-.5zM52 104l-3 1.5v2l3-1.5zM56 102l-3 1.5v2l3-1.5zM60 100l-3 1.5v2l3-1.5zM64 98l-3 1.5v2l3-1.5zM68 96l-3 1.5v2l3-1.5zM72 94l-3 1.5v2l3-1.5zM76 92l-3 1.5v2l3-1.5zM80 90l-3 1.5v2l3-1.5zM84 88l-3 1.5v2l3-1.5zM88 86l-3 1.5v2l3-1.5zM92 84l-3 1.5v2l3-1.5zM96 82l-3 1.5v2l3-1.5zM50 102l-2 1v2l2-1zM54 100l-3 1.5v2l3-1.5zM58 98l-3 1.5v2l3-1.5zM62 96l-3 1.5v2l3-1.5zM66 94l-3 1.5v2l3-1.5zM70 92l-3 1.5v2l3-1.5zM74 90l-3 1.5v2l3-1.5zM78 88l-3 1.5v2l3-1.5zM82 86l-3 1.5v2l3-1.5zM86 84l-3 1.5v2l3-1.5zM90 82l-3 1.5v2l3-1.5zM94 80l-3 1.5v2l3-1.5zM96 79l-1 .5v2l1-.5zM52 98l-3 1.5v2l3-1.5zM56 96l-3 1.5v2l3-1.5zM60 94l-3 1.5v2l3-1.5zM64 92l-3 1.5v2l3-1.5zM68 90l-3 1.5v2l3-1.5zM72 88l-3 1.5v2l3-1.5zM76 86l-3 1.5v2l3-1.5zM80 84l-3 1.5v2l3-1.5zM84 82l-3 1.5v2l3-1.5zM88 80l-3 1.5v2l3-1.5zM92 78l-3 1.5v2l3-1.5zM96 76l-3 1.5v2l3-1.5zM50 96l-2 1v2l2-1zM54 94l-3 1.5v2l3-1.5zM58 92l-3 1.5v2l3-1.5zM62 90l-3 1.5v2l3-1.5zM66 88l-3 1.5v2l3-1.5zM70 86l-3 1.5v2l3-1.5zM74 84l-3 1.5v2l3-1.5zM78 82l-3 1.5v2l3-1.5zM82 80l-3 1.5v2l3-1.5zM86 78l-3 1.5v2l3-1.5zM90 76l-3 1.5v2l3-1.5zM94 74l-3 1.5v2l3-1.5zM96 73l-1 .5v2l1-.5zM52 92l-3 1.5v2l3-1.5zM56 90l-3 1.5v2l3-1.5zM60 88l-3 1.5v2l3-1.5zM64 86l-3 1.5v2l3-1.5zM68 84l-3 1.5v2l3-1.5zM72 82l-3 1.5v2l3-1.5zM76 80l-3 1.5v2l3-1.5zM80 78l-3 1.5v2l3-1.5zM84 76l-3 1.5v2l3-1.5zM88 74l-3 1.5v2l3-1.5zM92 72l-3 1.5v2l3-1.5zM96 70l-3 1.5v2l3-1.5zM50 90l-2 1v2l2-1zM54 88l-3 1.5v2l3-1.5zM58 86l-3 1.5v2l3-1.5zM62 84l-3 1.5v2l3-1.5zM66 82l-3 1.5v2l3-1.5zM70 80l-3 1.5v2l3-1.5zM74 78l-3 1.5v2l3-1.5zM78 76l-3 1.5v2l3-1.5zM82 74l-3 1.5v2l3-1.5zM86 72l-3 1.5v2l3-1.5zM90 70l-3 1.5v2l3-1.5zM94 68l-3 1.5v2l3-1.5zM96 67l-1 .5v2l1-.5zM52 86l-3 1.5v2l3-1.5zM56 84l-3 1.5v2l3-1.5zM60 82l-3 1.5v2l3-1.5zM64 80l-3 1.5v2l3-1.5zM68 78l-3 1.5v2l3-1.5zM72 76l-3 1.5v2l3-1.5zM76 74l-3 1.5v2l3-1.5zM80 72l-3 1.5v2l3-1.5zM84 70l-3 1.5v2l3-1.5zM88 68l-3 1.5v2l3-1.5zM92 66l-3 1.5v2l3-1.5zM96 64l-3 1.5v2l3-1.5zM50 84l-2 1v2l2-1zM54 82l-3 1.5v2l3-1.5zM58 80l-3 1.5v2l3-1.5zM62 78l-3 1.5v2l3-1.5zM66 76l-3 1.5v2l3-1.5zM70 74l-3 1.5v2l3-1.5zM74 72l-3 1.5v2l3-1.5zM78 70l-3 1.5v2l3-1.5zM82 68l-3 1.5v2l3-1.5zM86 66l-3 1.5v2l3-1.5zM90 64l-3 1.5v2l3-1.5zM94 62l-3 1.5v2l3-1.5zM96 61l-1 .5v2l1-.5zM52 80l-3 1.5v2l3-1.5zM56 78l-3 1.5v2l3-1.5zM60 76l-3 1.5v2l3-1.5zM64 74l-3 1.5v2l3-1.5zM68 72l-3 1.5v2l3-1.5zM72 70l-3 1.5v2l3-1.5zM76 68l-3 1.5v2l3-1.5zM80 66l-3 1.5v2l3-1.5zM84 64l-3 1.5v2l3-1.5zM88 62l-3 1.5v2l3-1.5zM92 60l-3 1.5v2l3-1.5zM96 58l-3 1.5v2l3-1.5zM50 78l-2 1v2l2-1zM54 76l-3 1.5v2l3-1.5zM58 74l-3 1.5v2l3-1.5zM62 72l-3 1.5v2l3-1.5zM66 70l-3 1.5v2l3-1.5zM70 68l-3 1.5v2l3-1.5zM74 66l-3 1.5v2l3-1.5zM78 64l-3 1.5v2l3-1.5zM82 62l-3 1.5v2l3-1.5zM86 60l-3 1.5v2l3-1.5zM90 58l-3 1.5v2l3-1.5zM94 56l-3 1.5v2l3-1.5zM96 55l-1 .5v2l1-.5zM52 74l-3 1.5v2l3-1.5zM56 72l-3 1.5v2l3-1.5zM60 70l-3 1.5v2l3-1.5zM64 68l-3 1.5v2l3-1.5zM68 66l-3 1.5v2l3-1.5zM72 64l-3 1.5v2l3-1.5zM76 62l-3 1.5v2l3-1.5zM80 60l-3 1.5v2l3-1.5zM84 58l-3 1.5v2l3-1.5zM88 56l-3 1.5v2l3-1.5zM92 54l-3 1.5v2l3-1.5zM96 52l-3 1.5v2l3-1.5zM50 72l-2 1v2l2-1zM54 70l-3 1.5v2l3-1.5zM58 68l-3 1.5v2l3-1.5zM62 66l-3 1.5v2l3-1.5zM66 64l-3 1.5v2l3-1.5zM70 62l-3 1.5v2l3-1.5zM74 60l-3 1.5v2l3-1.5zM78 58l-3 1.5v2l3-1.5zM82 56l-3 1.5v2l3-1.5zM86 54l-3 1.5v2l3-1.5zM90 52l-3 1.5v2l3-1.5zM94 50l-3 1.5v2l3-1.5zM96 49l-1 .5v2l1-.5zM52 68l-3 1.5v2l3-1.5zM56 66l-3 1.5v2l3-1.5zM60 64l-3 1.5v2l3-1.5zM64 62l-3 1.5v2l3-1.5zM68 60l-3 1.5v2l3-1.5zM72 58l-3 1.5v2l3-1.5zM76 56l-3 1.5v2l3-1.5zM80 54l-3 1.5v2l3-1.5zM84 52l-3 1.5v2l3-1.5zM88 50l-3 1.5v2l3-1.5zM92 48l-3 1.5v2l3-1.5zM96 46l-3 1.5v2l3-1.5zM50 66l-2 1v2l2-1zM54 64l-3 1.5v2l3-1.5zM58 62l-3 1.5v2l3-1.5zM62 60l-3 1.5v2l3-1.5zM66 58l-3 1.5v2l3-1.5zM70 56l-3 1.5v2l3-1.5zM74 54l-3 1.5v2l3-1.5zM78 52l-3 1.5v2l3-1.5zM82 50l-3 1.5v2l3-1.5zM86 48l-3 1.5v2l3-1.5zM90 46l-3 1.5v2l3-1.5zM94 44l-3 1.5v2l3-1.5zM96 43l-1 .5v2l1-.5zM52 62l-3 1.5v2l3-1.5zM56 60l-3 1.5v2l3-1.5zM60 58l-3 1.5v2l3-1.5zM64 56l-3 1.5v2l3-1.5zM68 54l-3 1.5v2l3-1.5zM72 52l-3 1.5v2l3-1.5zM76 50l-3 1.5v2l3-1.5zM80 48l-3 1.5v2l3-1.5zM84 46l-3 1.5v2l3-1.5zM88 44l-3 1.5v2l3-1.5zM92 42l-3 1.5v2l3-1.5zM96 40l-3 1.5v2l3-1.5zM54 58l-3 1.5v2l3-1.5zM58 56l-3 1.5v2l3-1.5zM62 54l-3 1.5v2l3-1.5zM66 52l-3 1.5v2l3-1.5zM70 50l-3 1.5v2l3-1.5zM74 48l-3 1.5v2l3-1.5zM78 46l-3 1.5v2l3-1.5zM82 44l-3 1.5v2l3-1.5zM86 42l-3 1.5v2l3-1.5zM90 40l-3 1.5v2l3-1.5zM94 38l-3 1.5v2l3-1.5zM96 37l-1 .5v2l1-.5zM56 54l-3 1.5v2l3-1.5zM60 52l-3 1.5v2l3-1.5zM64 50l-3 1.5v2l3-1.5zM68 48l-3 1.5v2l3-1.5zM72 46l-3 1.5v2l3-1.5zM76 44l-3 1.5v2l3-1.5zM80 42l-3 1.5v2l3-1.5zM84 40l-3 1.5v2l3-1.5zM88 38l-3 1.5v2l3-1.5zM91 36.5l-2 1v2l3-1.5zM58 50l-2 1-1 2.5 3-1.5zM62 48l-3 1.5v2l3-1.5zM66 46l-3 1.5v2l3-1.5zM70 44l-3 1.5v2l3-1.5zM74 42l-3 1.5v2l3-1.5zM78 40l-3 1.5v2l3-1.5zM82 38l-3 1.5v2l3-1.5zM86 36l-3 1.5v2l3-1.5zM88 35l-1 .5v2l3-1.5zM60 46l-1 .5-2 3 3-1.5zM64 44l-3 1.5v2l3-1.5zM68 42l-3 1.5v2l3-1.5zM72 40l-3 1.5v2l3-1.5zM76 38l-3 1.5v2l3-1.5zM80 36l-3 1.5v2l3-1.5zM84 34l-3 1.5v2l3-1.5zM66 40l-3 1.5v2l3-1.5zM70 38l-3 1.5v2l3-1.5zM74 36l-3 1.5v2l3-1.5zM78 34l-3 1.5v2l3-1.5zM82 32l-3 1.5v2l3-1.5zM68 36l-3 1.5v2l3-1.5zM72 34l-3 1.5v2l3-1.5zM76 32l-3 1.5v2l3-1.5zM80 30l-3 1.5v2l3-1.5zM70 32l-3 1.5v2l3-1.5zM74 30l-3 1.5v2l3-1.5zM77 28.5l-2 1v2l3-1.5zM72 28l-1 .5-2 3 3-1.5z"></path></g><g fill="#F8EBCB" opacity=".3"><path d="M52 128l-3 1.5v2l3-1.5zM96 106l-3 1.5v2l3-1.5zM50 126l-2 1v2l2-1zM96 103l-1 .5v2l1-.5zM52 122l-3 1.5v2l3-1.5zM96 100l-3 1.5v2l3-1.5zM50 120l-2 1v2l2-1zM96 97l-1 .5v2l1-.5zM52 116l-3 1.5v2l3-1.5zM96 94l-3 1.5v2l3-1.5zM50 114l-2 1v2l2-1zM96 91l-1 .5v2l1-.5zM52 110l-3 1.5v2l3-1.5zM96 88l-3 1.5v2l3-1.5zM50 108l-2 1v2l2-1zM96 85l-1 .5v2l1-.5zM52 104l-3 1.5v2l3-1.5zM96 82l-3 1.5v2l3-1.5zM50 102l-2 1v2l2-1zM96 79l-1 .5v2l1-.5zM52 98l-3 1.5v2l3-1.5zM96 76l-3 1.5v2l3-1.5zM50 96l-2 1v2l2-1zM96 73l-1 .5v2l1-.5zM52 92l-3 1.5v2l3-1.5zM96 70l-3 1.5v2l3-1.5zM50 90l-2 1v2l2-1zM96 67l-1 .5v2l1-.5zM52 86l-3 1.5v2l3-1.5zM96 64l-3 1.5v2l3-1.5zM50 84l-2 1v2l2-1zM96 61l-1 .5v2l1-.5zM52 80l-3 1.5v2l3-1.5zM96 58l-3 1.5v2l3-1.5zM50 78l-2 1v2l2-1zM96 55l-1 .5v2l1-.5zM52 74l-3 1.5v2l3-1.5zM96 52l-3 1.5v2l3-1.5zM50 72l-2 1v2l2-1zM96 49l-1 .5v2l1-.5zM52 68l-3 1.5v2l3-1.5zM96 46l-3 1.5v2l3-1.5zM50 66l-2 1v2l2-1zM96 43l-1 .5v2l1-.5zM52 62l-3 1.5v2l3-1.5zM96 40l-3 1.5v2l3-1.5z"></path></g><path fill="#BAA794" d="M68 91l-9 4.5v-13l9-4.5z"></path><path fill="#39C" d="M60 83v11l3-1.5v-11z"></path><path fill="#FFF" d="M60 88v6l3-1.5z" opacity=".2"></path><path fill="#39C" d="M64 81v11l3-1.5v-11z"></path><path d="M63 82.5L60 84v-1l3-1.5zM67 80.5L64 82v-1l3-1.5z" opacity=".15"></path><path d="M67 87.5L64 82v-1l3-1.5z" opacity=".15"></path><path fill="#BAA794" d="M67 83.5L60 87v-1l7-3.5zM67 87.5L60 91v-1l7-3.5z"></path><path fill="#F8EBCB" d="M68 78l-9 4.5v-2l9-4.5zM68 92l-9 4.5v-1l9-4.5z"></path><g><path fill="#BAA794" d="M85 82.5L76 87V74l9-4.5z"></path><path fill="#39C" d="M77 74.5v11l3-1.5V73z"></path><path fill="#FFF" d="M77 79.5v6l3-1.5z" opacity=".2"></path><path fill="#39C" d="M81 72.5v11l3-1.5V71z"></path><path d="M80 74l-3 1.5v-1l3-1.5zM84 72l-3 1.5v-1l3-1.5z" opacity=".15"></path><path d="M84 79l-3-5.5v-1l3-1.5z" opacity=".15"></path><path fill="#BAA794" d="M84 75l-7 3.5v-1l7-3.5zM84 79l-7 3.5v-1l7-3.5z"></path><path fill="#F8EBCB" d="M85 69.5L76 74v-2l9-4.5zM85 83.5L76 88v-1l9-4.5z"></path></g><g><path fill="#BAA794" d="M68 71l-9 4.5v-13l9-4.5z"></path><path fill="#39C" d="M60 63v11l3-1.5v-11z"></path><path fill="#FFF" d="M60 68v6l3-1.5z" opacity=".2"></path><path fill="#39C" d="M64 61v11l3-1.5v-11z"></path><path d="M63 62.5L60 64v-1l3-1.5zM67 60.5L64 62v-1l3-1.5z" opacity=".15"></path><path d="M67 67.5L64 62v-1l3-1.5z" opacity=".15"></path><path fill="#BAA794" d="M67 63.5L60 67v-1l7-3.5zM67 67.5L60 71v-1l7-3.5z"></path><path fill="#F8EBCB" d="M68 58l-9 4.5v-1l9-4.5zM68 72l-9 4.5v-1l9-4.5z"></path></g><g><path fill="#BAA794" d="M85 62.5L76 67V54l9-4.5z"></path><path fill="#39C" d="M77 54.5v11l3-1.5V53z"></path><path fill="#FFF" d="M77 59.5v6l3-1.5z" opacity=".2"></path><path fill="#39C" d="M81 52.5v11l3-1.5V51z"></path><path d="M80 54l-3 1.5v-1l3-1.5zM84 52l-3 1.5v-1l3-1.5z" opacity=".15"></path><path d="M84 59l-3-5.5v-1l3-1.5z" opacity=".15"></path><path fill="#BAA794" d="M84 55l-7 3.5v-1l7-3.5zM84 59l-7 3.5v-1l7-3.5z"></path><path fill="#F8EBCB" d="M85 49.5L76 54v-1l9-4.5zM85 63.5L76 68v-1l9-4.5z"></path></g><g><path fill="#BAA794" d="M76 46l-8 4V39l8-4z"></path><path fill="#39C" d="M69 39.5v9l6-3v-9z"></path><path d="M75 37.5l-6 3v-1l6-3z" opacity=".15"></path><path d="M75 44.5l-6-4v-1l6-3z" opacity=".15"></path><path fill="#BAA794" d="M75 40.5l-6 3v-1l6-3z"></path></g><g><path fill="#BAA794" d="M68 112l-9 4.5v-13l9-4.5z"></path><path fill="#39C" d="M60 104v11l3-1.5v-11z"></path><path fill="#FFF" d="M60 109v6l3-1.5z" opacity=".2"></path><path fill="#39C" d="M64 102v11l3-1.5v-11z"></path><path d="M63 103.5l-3 1.5v-1l3-1.5zM67 101.5l-3 1.5v-1l3-1.5z" opacity=".15"></path><path d="M67 108.5l-3-5.5v-1l3-1.5z" opacity=".15"></path><path fill="#BAA794" d="M67 104.5l-7 3.5v-1l7-3.5zM67 108.5l-7 3.5v-1l7-3.5z"></path><path fill="#F8EBCB" d="M68 99l-9 4.5v-1l4-4 1-.5h4zM68 113l-9 4.5v-1l9-4.5z"></path></g><g><path fill="#BAA794" d="M85 103.5l-9 4.5V95l9-4.5z"></path><path fill="#39C" d="M77 95.5v11l3-1.5V94z"></path><path fill="#FFF" d="M77 100.5v6l3-1.5z" opacity=".2"></path><path fill="#39C" d="M81 93.5v11l3-1.5V92z"></path><path d="M80 95l-3 1.5v-1l3-1.5zM84 93l-3 1.5v-1l3-1.5z" opacity=".15"></path><path d="M84 100l-3-5.5v-1l3-1.5z" opacity=".15"></path><path fill="#BAA794" d="M84 96l-7 3.5v-1l7-3.5zM84 100l-7 3.5v-1l7-3.5z"></path><path fill="#F8EBCB" d="M85 90.5L76 95v-1l4-4 1-.5h4zM85 104.5l-9 4.5v-1l9-4.5z"></path></g><path fill="#F8EBCB" d="M96 112l-48 24v-3l48-24zM72 26L48 62v1l24-36 24 12v-1z"></path><path d="M96 112l-48 24V62l24-36 24 12z" opacity=".39"></path></g><path fill="#2D3134" d="M0 38l48 24 24-36L24 2zM48 14l48 24-24-12L24 2z"></path><g><path fill="#BAA794" d="M15.8 37.3L22.7 27l7.2 3.6L23 40.9z"></path><path fill="#39C" d="M17.3 36.9l5.8-8.6 5.4 2.7-5.8 8.6z"></path><path d="M23 29.2l5 2.5.5-.7-5.4-2.7-5.8 8.6.4.2z" opacity=".15"></path><path fill="#BAA794" d="M26.9 33.9l-6-3v1l6 3z"></path></g><g><path fill="#BAA794" d="M29.9 44.2l6.9-10.3 7.2 3.6-6.9 10.3z"></path><path fill="#39C" d="M31.4 43.9l5.7-8.7 5.4 2.7-5.7 8.7z"></path><path d="M37.1 36.1l5 2.5.4-.7-5.4-2.7-5.7 8.7.4.2z" opacity=".15"></path><path fill="#BAA794" d="M41 40.8l-6-3v1l6 3z"></path></g><path d="M0 38l48 24 24-36L24 2z" opacity=".06"></path><path fill="#FFF" d="M22.8 3.7l48 24L72 26 24 2z" opacity=".2"></path></svg>