<svg xmlns="http://www.w3.org/2000/svg" viewBox="0 0 64 80" id="house"><path fill="#999" d="m6 63-4 2 28 14 4-2z"></path><path fill="#E5E5E5" d="M16 4 0 28v36l2 1 32-16V13L18 5z"></path><path d="m2 29-2-1v36l2 1z" opacity=".06"></path><path d="M34 49 2 65V29L18 5l16 8z" opacity=".39"></path><path fill="#E5E5E5" d="M34 77 6 63V29l28 14z"></path><path fill="#FFF" d="m17 53.5-8-4v15l8 4z"></path><path fill="#656565" d="m10 51 6 3v14l-6-3z"></path><path fill="#39C" d="m11 52.5 4 2v4l-4-2z"></path><path d="m11 52.5 4 2v1l-4-2z" opacity=".15"></path><path fill="#FFF" d="m27 41.5-6-3v15l6 3z"></path><path fill="#656565" d="m22 40 4 2v14l-4-2z"></path><path fill="#39C" d="m23 41.5 2 1v12l-2-1z"></path><path d="m23 41.5 2 1v1l-2-1z" opacity=".15"></path><path fill="#FFF" d="m32 44-6-3v15l6 3z"></path><path fill="#656565" d="m27 42.5 4 2v14l-4-2z"></path><path fill="#39C" d="m28 44 2 1v12l-2-1z"></path><path d="m28 44 2 1v1l-2-1z" opacity=".15"></path><path d="m6 29 28 14v6L6 35zM6 46l28 14v6L6 52z" opacity=".1"></path><path d="M34 77 6 63V29l28 14z" opacity=".06"></path><path fill="#BAA794" d="m16 55 4-2V36l-4 2z"></path><path d="m16 55 4-2V36l-4 2z" opacity=".39"></path><path fill="#999" d="m20 52 10 5v4l-14-7z"></path><path fill="#39C" d="m16 47 14 7v6l-14-7z" opacity=".6"></path><path d="m23 50.7 7 3.3v6l-3-1.4z" opacity=".15"></path><path fill="#FFF" d="m16 47 3 1.4 5.3 8.6-8.3-4z" opacity=".2"></path><path fill="#E5E5E5" d="m16 53 14 7v2l-14-7z"></path><path fill="#BAA794" d="M16 55 2 48V31l14 7zM30 79l-14-7V55l14 7z"></path><path fill="#656565" d="m13 38.5-8-4v11l8 4z"></path><path fill="#FFF" d="m6 36 6 3v9l-6-3z"></path><path fill="#39C" d="m7 37.5 4 2v7l-4-2z"></path><path d="m7 37.5 4 2v1l-4-2z" opacity=".15"></path><path fill="#656565" d="m27 62.5-8-4v11l8 4z"></path><path fill="#FFF" d="m20 60 6 3v9l-6-3z"></path><path fill="#39C" d="m21 61.5 4 2v7l-4-2z"></path><path d="m21 61.5 4 2v1l-4-2z" opacity=".15"></path><path fill="#E5E5E5" d="m30 62-14-7v-2l14 7zM30 45 2 31v-2l28 14z"></path><path fill="#2D3134" d="M2 29.2 18 5.7l30 15.1-16 23.5z"></path><path d="M2 29.2 18 5.7l30 15.1-16 23.5z" opacity=".06"></path><path fill="#FFF" d="m18 5.7-.7 1.2L47 21.8l1-1z" opacity=".2"></path><path fill="#E5E5E5" d="M46 19 30 43v36l2 1 32-16V28l-16-8z"></path><path d="m32 44-2-1v36l2 1z" opacity=".06"></path><g opacity=".1"><path d="M37.8 71.1c-.6.3-1.1 1-1.1 1.6 0 .6.5.8 1.1.5.6-.3 1.1-1 1.1-1.6s-.5-.8-1.1-.5zM60.3 60.8c.7-.4 1.3-1.2 1.3-1.9s-.6-1-1.3-.6c-.7.4-1.3 1.2-1.3 1.9s.6 1 1.3.6zM34.7 64.7c.5-.2.9-.8.9-1.3s-.4-.7-.9-.4c-.5.2-.9.8-.9 1.3.1.4.5.6.9.4zM58.5 29.9c0-.7-.6-1-1.3-.6-.7.4-1.3 1.2-1.3 1.9s.6 1 1.3.6c.8-.3 1.3-1.2 1.3-1.9zM57.3 53.2c0-.1-.1-.2-.2-.1s-.2.2-.2.3.1.2.2.1.2-.2.2-.3zM47.5 70c0-.1-.1-.2-.2-.1s-.2.2-.2.3.1.2.2.1.2-.2.2-.3zM57.4 45.1c-.4.2-.6.6-.6 1s.3.5.6.3c.4-.2.6-.6.6-1s-.3-.5-.6-.3zM50.6 34.5c0 .1.1.2.2.1s.2-.2.2-.3c0-.1-.1-.2-.2-.1-.1 0-.2.2-.2.3zM42.6 36.1c.7-.4 1.3-1.2 1.3-1.9s-.6-1-1.3-.6c-.7.4-1.3 1.2-1.3 1.9 0 .6.6.9 1.3.6zM36.3 45.2c-.7.4-1.3 1.2-1.3 1.9s.6 1 1.3.6c.7-.4 1.3-1.2 1.3-1.9s-.6-1-1.3-.6zM41 62.7c0-.6-.5-.8-1.1-.5s-1.1 1-1.1 1.6c0 .6.5.8 1.1.5.6-.3 1.1-1 1.1-1.6zM49.5 56.4c0-.6-.5-.8-1.1-.5s-1.1 1-1.1 1.6.5.8 1.1.5c.6-.2 1.1-1 1.1-1.6zM34.7 67.6c-.4.2-.6.6-.6 1s.3.5.6.3c.4-.2.6-.6.6-1s-.2-.5-.6-.3zM50.2 45.2c-.6.3-1.1 1-1.1 1.6s.5.8 1.1.5c.6-.3 1.1-1 1.1-1.6-.1-.5-.5-.8-1.1-.5zM50.8 26.8c0 .6.5.8 1.1.5s1.1-1 1.1-1.6c0-.6-.5-.8-1.1-.5s-1.1 1-1.1 1.6zM49.7 66.9c.5-.2.9-.8.9-1.3s-.4-.7-.9-.4c-.5.2-.9.8-.9 1.3.1.5.4.6.9.4zM59.4 37.1c-.2.1-.3.3-.3.5s.1.2.3.2c.2-.1.3-.3.3-.5 0-.3-.1-.3-.3-.2zM60.8 56.2c-.2.1-.3.3-.3.5s.1.2.3.2c.2-.1.3-.3.3-.5s-.2-.2-.3-.2zM59.3 40.1c0-.2-.2-.3-.4-.2-.2.1-.4.3-.4.5s.2.3.4.2c.3-.1.4-.3.4-.5zM45.6 51.5c0-.2-.2-.3-.4-.2-.2.1-.4.3-.4.5s.2.3.4.2c.2-.1.4-.3.4-.5zM40.8 40c-.5.2-.9.8-.9 1.3s.4.7.9.4.9-.8.9-1.3-.4-.7-.9-.4z"></path></g><g opacity=".1"><path d="M43.5 34c0 .7-.6 1.6-1.3 1.9-.2.1-.4.2-.6.1.2.1.6.1.9-.1.7-.4 1.3-1.2 1.3-1.9 0-.5-.3-.8-.7-.8.3.2.4.5.4.8zM45.2 51.3v.1c0 .2-.2.4-.4.5 0 .1.2.2.3.1.2-.1.4-.3.4-.5.1-.2-.1-.3-.3-.2zM41.2 39.9c.1.1.2.2.2.4 0 .5-.4 1.1-.9 1.3-.1.1-.2.1-.3.1.2.1.4.1.7 0 .5-.2.9-.8.9-1.3-.1-.4-.3-.6-.6-.5zM36.9 45c.2.1.4.4.4.7 0 .7-.6 1.6-1.3 1.9-.2.1-.4.2-.6.1.2.1.6.1.9-.1.7-.4 1.3-1.2 1.3-1.9 0-.4-.3-.7-.7-.7zM48.9 55.8c.2.1.3.3.3.6 0 .6-.5 1.3-1.1 1.6-.2.1-.3.1-.5.1.2.1.5.1.8 0 .6-.3 1.1-1 1.1-1.6 0-.5-.3-.7-.6-.7zM57.1 53.1c-.1.1-.2.2-.2.3s.1.2.2.1.2-.2.2-.3-.1-.2-.2-.1zM52.7 25.6c0 .6-.5 1.3-1.1 1.6-.2.1-.3.1-.5.1.2.1.5.1.8 0 .6-.3 1.1-1 1.1-1.6 0-.4-.3-.7-.6-.7.2.1.3.3.3.6zM61.1 56.4c0-.2-.1-.2-.3-.2 0 .2-.1.3-.3.4 0 .1.1.2.3.1.1.1.3-.1.3-.3zM50.6 34.5c0 .1.1.2.2.1s.2-.2.2-.3c0-.1-.1-.2-.2-.1-.1 0-.2.2-.2.3zM58.2 29.8c0 .7-.6 1.6-1.3 1.9-.2.1-.4.2-.6.1.2.1.6.1.9-.1.7-.4 1.3-1.2 1.3-1.9 0-.5-.3-.8-.7-.8.3.2.4.5.4.8zM59 39.9v.1c0 .2-.2.4-.4.5 0 .1.2.2.3.1.2-.1.4-.3.4-.5s-.1-.3-.3-.2zM40.4 62c.2.1.3.3.3.6 0 .6-.5 1.3-1.1 1.6-.2.1-.3.1-.5.1.2.1.5.1.8 0 .6-.3 1.1-1 1.1-1.6 0-.5-.3-.7-.6-.7zM38.3 70.9c.2.1.3.3.3.6 0 .6-.5 1.3-1.1 1.6-.2.1-.3.1-.5.1.2.1.5.1.8 0 .6-.3 1.1-1 1.1-1.6 0-.4-.2-.7-.6-.7zM57.5 45c.1.1.1.2.1.3 0 .4-.3.8-.6 1-.1 0-.1 0-.2.1.1.1.3.1.5 0 .4-.2.6-.6.6-1 .1-.3-.1-.4-.4-.4zM47.2 69.9c-.1.1-.2.2-.2.3s.1.2.2.1.2-.2.2-.3 0-.2-.2-.1zM35.1 62.8c.1.1.2.2.2.4 0 .5-.4 1.1-.9 1.3-.1.1-.2.1-.3.1.2.1.4.1.7 0 .5-.2.9-.8.9-1.3-.1-.3-.3-.5-.6-.5zM50.6 45.1c.2.1.3.3.3.6 0 .6-.5 1.3-1.1 1.6-.2.1-.3.1-.5.1.2.1.5.1.8 0 .6-.3 1.1-1 1.1-1.6 0-.5-.2-.7-.6-.7zM60.9 58.1c.2.1.4.4.4.7 0 .7-.6 1.6-1.3 1.9-.2.1-.4.2-.6.1.2.1.6.1.9-.1.7-.4 1.3-1.2 1.3-1.9 0-.4-.3-.7-.7-.7zM34.9 67.6c.1.1.1.2.1.3 0 .4-.3.8-.6 1-.1 0-.1 0-.2.1.1.1.3.1.5 0 .4-.2.6-.6.6-1 .1-.3-.1-.5-.4-.4zM50 65.1c.1.1.2.2.2.4 0 .5-.4 1.1-.9 1.3-.1.1-.2.1-.3.1.2.1.4.1.7 0 .5-.2.9-.8.9-1.3 0-.4-.2-.6-.6-.5zM59.4 37.1c0 .2-.1.4-.3.5 0 .1.1.2.3.1.2-.1.3-.3.3-.5s-.1-.2-.3-.1z"></path></g><path d="M64 64 32 80V44l16-24 16 8z" opacity=".39"></path><path d="M30 45v-2L2 29v19l14 7v17l14 7V54l-14-7v-9z" opacity=".06"></path><path fill="#999" d="m6 63-4 2 14 7v-4z"></path><path d="m6 63-4 2 14 7v-4z" opacity=".1"></path></svg>