<svg xmlns="http://www.w3.org/2000/svg" viewBox="0 0 80 88" id="house"><path fill="#F8EBCB" d="M80 38l-16-8-16 24v34l32-16z"></path><path fill="#FFF" d="M80 72l-2 1V37l2 1zM58 78l12-6V59l-12 6z"></path><path fill="#825012" d="M59 76.5l10-5v-11l-10 5z"></path><path fill="#39C" d="M68 71l-8 4v-9l8-4z"></path><path d="M60 73v-7l8-4z" opacity=".15"></path><path fill="#825012" d="M68 65l-8 4v1l8-4z"></path><path d="M60 67l8-4v-1l-8 4z" opacity=".15"></path><path fill="#825012" d="M66 62l-1 .5v10l1-.5zM63 63.5l-1 .5v10l1-.5z"></path><path d="M68 71V61l1-.5v11l-10 5v-1z" opacity=".3"></path><path fill="#FFF" d="M58 63l12-6V44l-12 6z"></path><path fill="#825012" d="M59 61.5l10-5v-11l-10 5z"></path><path fill="#39C" d="M68 56l-8 4v-9l8-4z"></path><path d="M60 58v-7l8-4z" opacity=".15"></path><path fill="#825012" d="M68 50l-8 4v1l8-4z"></path><path d="M60 52l8-4v-1l-8 4z" opacity=".15"></path><path fill="#825012" d="M66 47l-1 .5v10l1-.5zM63 48.5l-1 .5v10l1-.5z"></path><path d="M68 56V46l1-.5v11l-10 5v-1z" opacity=".3"></path><g><path fill="#F8EBCB" d="M0 30l48 24v34L0 64z"></path><path fill="#FFF" d="M0 64l2 1V31l-2-1zM46 87l2 1V54l-2-1z"></path><path d="M46 87L2 65v-1l44 22z" opacity=".3"></path><path fill="#FFF" d="M15 66.5L6 62V49l9 4.5z"></path><path fill="#825012" d="M14 65l-7-3.5v-11l7 3.5z"></path><path fill="#39C" d="M8 61l5 2.5v-9L8 52z"></path><path d="M13 61.5v-7L8 52z" opacity=".15"></path><path fill="#825012" d="M8 55l5 2.5v1L8 56z"></path><path d="M13 55.5L8 53v-1l5 2.5z" opacity=".15"></path><path fill="#825012" d="M10 52l1 .5v10l-1-.5z"></path><path d="M8 61V51l-1-.5v11l7 3.5v-1z" opacity=".3"></path><path fill="#FFF" d="M29 73.5L20 69V56l9 4.5z"></path><path fill="#825012" d="M28 72l-7-3.5v-11l7 3.5z"></path><path fill="#39C" d="M22 68l5 2.5v-9L22 59z"></path><path d="M27 68.5v-7L22 59z" opacity=".15"></path><path fill="#825012" d="M22 62l5 2.5v1L22 63z"></path><path d="M27 62.5L22 60v-1l5 2.5z" opacity=".15"></path><path fill="#825012" d="M24 59l1 .5v10l-1-.5z"></path><path d="M22 68V58l-1-.5v11l7 3.5v-1z" opacity=".3"></path><g><path fill="#FFF" d="M15 51.5L6 47V34l9 4.5z"></path><path fill="#825012" d="M14 50l-7-3.5v-11l7 3.5z"></path><path fill="#39C" d="M8 46l5 2.5v-9L8 37z"></path><path d="M13 46.5v-7L8 37z" opacity=".15"></path><path fill="#825012" d="M8 40l5 2.5v1L8 41z"></path><path d="M13 40.5L8 38v-1l5 2.5z" opacity=".15"></path><path fill="#825012" d="M10 37l1 .5v10l-1-.5z"></path><path d="M8 46V36l-1-.5v11l7 3.5v-1z" opacity=".3"></path></g><g><path fill="#FFF" d="M29 58.5L20 54V41l9 4.5z"></path><path fill="#825012" d="M28 57l-7-3.5v-11l7 3.5z"></path><path fill="#39C" d="M22 53l5 2.5v-9L22 44z"></path><path d="M27 53.5v-7L22 44z" opacity=".15"></path><path fill="#825012" d="M22 47l5 2.5v1L22 48z"></path><path d="M27 47.5L22 45v-1l5 2.5z" opacity=".15"></path><path fill="#825012" d="M24 44l1 .5v10l-1-.5z"></path><path d="M22 53V43l-1-.5v11l7 3.5v-1z" opacity=".3"></path></g><g><path fill="#FFF" d="M43 65.5L34 61V48l9 4.5z"></path><path fill="#825012" d="M42 64l-7-3.5v-11l7 3.5z"></path><path fill="#39C" d="M36 60l5 2.5v-9L36 51z"></path><path d="M41 60.5v-7L36 51z" opacity=".15"></path><path fill="#825012" d="M36 54l5 2.5v1L36 55z"></path><path d="M41 54.5L36 52v-1l5 2.5z" opacity=".15"></path><path fill="#825012" d="M38 51l1 .5v10l-1-.5z"></path><path d="M36 60V50l-1-.5v11l7 3.5v-1z" opacity=".3"></path></g><path fill="#FFF" d="M43 67.5L34 63v17l9 4.5z"></path><path fill="#825012" d="M42 84l-7-3.5v-16l7 3.5z"></path><path d="M36 80V65l-1-.5v16l7 3.5v-1z" opacity=".3"></path><path d="M38 70l-2-1v-1l2 1zM41 71.5l-2-1v-1l2 1zM38 74l-2-1v-1l2 1zM41 75.5l-2-1v-1l2 1zM38 78l-2-1v-1l2 1zM41 79.5l-2-1v-1l2 1z" opacity=".3"></path><path d="M0 30l48 24v34L0 64z" opacity=".06"></path></g><path fill="#762C07" d="M48 54L0 30 16 6l48 24z"></path><path d="M48 54L0 30 16 6l48 24z" opacity=".06"></path><path fill="#FFF" d="M14.9 7.6l48 24L64 30 16 6z" opacity=".2"></path><path fill="#FFF" d="M50 87l-2 1V54l2-3z"></path><path d="M50 87l28-14v-1L50 86z" opacity=".3"></path><path fill="#762C07" d="M48 54l16-24 16 8h-1l-15-7-15 23z"></path><path d="M80 38l-16-8-16 24v34l32-16z" opacity=".39"></path></svg>