<svg xmlns="http://www.w3.org/2000/svg" viewBox="0 0 96 80" id="house"><path fill="#F8EBCB" d="m64 52 16-24 16 8v20L64 72z"></path><path fill="#FFF" d="m64 72 2-1V49l-2 3zM86 56l-12 6V49l12-6z"></path><path fill="#825012" d="m85 55.5-10 5v-11l10-5z"></path><path fill="#39C" d="m76 59 8-4v-9l-8 4z"></path><path d="M84 53v-7l-8 4z" opacity=".15"></path><path fill="#825012" d="m76 53 8-4v1l-8 4z"></path><path d="m84 47-8 4v-1l8-4z" opacity=".15"></path><path fill="#825012" d="m78 48 1-.5v10l-1 .5zM81 46.5l1-.5v10l-1 .5z"></path><path d="M84 55V45l1-.5v11l-10 5v-1z" opacity=".3"></path><path fill="#F8EBCB" d="m16 28 48 24v20L16 48z"></path><path fill="#FFF" d="m16 48 2 1V29l-2-1zM62 71l2 1V52l-2-1z"></path><path d="M62 71 18 49v-1l44 22z" opacity=".3"></path><path fill="#FFF" d="M31 50.5 22 46V33l9 4.5z"></path><path fill="#825012" d="m30 49-7-3.5v-11l7 3.5z"></path><path fill="#39C" d="m24 45 5 2.5v-9L24 36z"></path><path d="M29 45.5v-7L24 36z" opacity=".15"></path><path fill="#825012" d="m24 39 5 2.5v1L24 40z"></path><path d="M29 39.5 24 37v-1l5 2.5z" opacity=".15"></path><path fill="#825012" d="m26 36 1 .5v10l-1-.5z"></path><path d="M24 45V35l-1-.5v11l7 3.5v-1z" opacity=".3"></path><path fill="#FFF" d="m58 64-9-4.5v-13l9 4.5z"></path><path fill="#825012" d="M57 62.5 50 59V48l7 3.5z"></path><path fill="#39C" d="m51 58.5 5 2.5v-9l-5-2.5z"></path><path d="M56 59v-7l-5-2.5z" opacity=".15"></path><path fill="#825012" d="m51 52.5 5 2.5v1l-5-2.5z"></path><path d="m56 53-5-2.5v-1l5 2.5z" opacity=".15"></path><path fill="#825012" d="m53 49.5 1 .5v10l-1-.5z"></path><path d="M51 58.5v-10l-1-.5v11l7 3.5v-1z" opacity=".3"></path><path fill="#FFF" d="m45 44.5-10-5v17l10 5z"></path><path fill="#825012" d="m44 61-8-4V41l8 4z"></path><path d="M37 56.5v-15l-1-.5v16l8 4v-1z" opacity=".3"></path><path d="m40 47-2-1v-1l2 1zM43 48.5l-2-1v-1l2 1zM40 51l-2-1v-1l2 1zM43 52.5l-2-1v-1l2 1zM40 55l-2-1v-1l2 1zM43 56.5l-2-1v-1l2 1z" opacity=".3"></path><path d="m16 28 48 24v20L16 48z" opacity=".06"></path><path fill="#762C07" d="M64 52 16 28 32 4l48 24z"></path><path d="M64 52 16 28 32 4l48 24z" opacity=".06"></path><path fill="#FFF" d="m30.9 5.6 48 24L80 28 32 4z" opacity=".2"></path><path fill="#656565" d="m48 63-16-8-8 4v1l16 8 8-4z"></path><path fill="#2D3134" d="m44 61-8-4-4 2 8 4z"></path><path d="M48 63v1l-8 4v-1z" opacity=".39"></path><path d="M24 59v1l16 8v-1z" opacity=".06"></path><path fill="#FFF" d="m30 59.5-1-.5V39l1 .5z"></path><path d="m30 59.5-1-.5V39l1 .5z" opacity=".06"></path><path fill="#FFF" d="m30 39.5 1-.5v20l-1 .5z"></path><path d="m30 39.5 1-.5v20l-1 .5z" opacity=".39"></path><path fill="#FFF" d="m39 64-1-.5v-21l1 .5z"></path><path d="m39 64-1-.5v-21l1 .5z" opacity=".06"></path><path fill="#FFF" d="m39 43 1-.5v21l-1 .5z"></path><path d="m39 43 1-.5v21l-1 .5z" opacity=".39"></path><path fill="#F8EBCB" d="m23 39 18 9-9-16z"></path><path fill="#FFF" d="m27.7 39.7 3.9-3.3 3.8 7.1z"></path><path fill="#762C07" d="m32 33 8.3 14.6.7.4-9-16-9 7 .7.4z"></path><path fill="#762C07" d="m32 32 9 16 7.6-4.3L50 23z"></path><path d="m32 32 9 16 7.6-4.3L50 23z" opacity=".39"></path><path fill="#FFF" d="M49.6 24.2 50 23l-18 9 .4.8z" opacity=".2"></path><path d="m28.7 39.7 3.2-2.8-.3-.5-3.9 3.3 7.7 3.8-.3-.6z" opacity=".3"></path><path d="m23 39 18 9-9-16z" opacity=".06"></path><path fill="#FFF" d="m94 57 2-1V36l-2-1z"></path><path d="M94 57 66 71v-1l28-14z" opacity=".3"></path><path fill="#762C07" d="m64 52 16-24 16 8h-1l-15-7-15 23z"></path><path d="m64 52 16-24 16 8v20L64 72z" opacity=".39"></path></svg>