<svg xmlns="http://www.w3.org/2000/svg" viewBox="0 0 112 112" id="house"><path fill="#F8EBCB" d="M0 52l48 24v36L0 88z"></path><path fill="#FFF" d="M0 88l2 1V53l-2-1zM46 111l2 1V76l-2-1z"></path><path d="M46 111L2 89v-1l44 22z" opacity=".3"></path><path fill="#FFF" d="M15 90.5L6 86V73l9 4.5z"></path><path fill="#825012" d="M14 89l-7-3.5v-11l7 3.5z"></path><path fill="#39C" d="M8 85l5 2.5v-9L8 76z"></path><path d="M13 85.5v-7L8 76z" opacity=".15"></path><path fill="#825012" d="M8 79l5 2.5v1L8 80z"></path><path d="M13 79.5L8 77v-1l5 2.5z" opacity=".15"></path><path fill="#825012" d="M10 76l1 .5v10l-1-.5z"></path><path d="M8 85V75l-1-.5v11l7 3.5v-1z" opacity=".3"></path><g><path fill="#FFF" d="M29 97.5L20 93V80l9 4.5z"></path><path fill="#825012" d="M28 96l-7-3.5v-11l7 3.5z"></path><path fill="#39C" d="M22 92l5 2.5v-9L22 83z"></path><path d="M27 92.5v-7L22 83z" opacity=".15"></path><path fill="#825012" d="M22 86l5 2.5v1L22 87z"></path><path d="M27 86.5L22 84v-1l5 2.5z" opacity=".15"></path><path fill="#825012" d="M24 83l1 .5v10l-1-.5z"></path><path d="M22 92V82l-1-.5v11l7 3.5v-1z" opacity=".3"></path></g><g><path fill="#FFF" d="M15 75.5L6 71V58l9 4.5z"></path><path fill="#825012" d="M14 74l-7-3.5v-11l7 3.5z"></path><path fill="#39C" d="M8 70l5 2.5v-9L8 61z"></path><path d="M13 70.5v-7L8 61z" opacity=".15"></path><path fill="#825012" d="M8 64l5 2.5v1L8 65z"></path><path d="M13 64.5L8 62v-1l5 2.5z" opacity=".15"></path><path fill="#825012" d="M10 61l1 .5v10l-1-.5z"></path><path d="M8 70V60l-1-.5v11l7 3.5v-1z" opacity=".3"></path></g><g><path fill="#FFF" d="M29 82.5L20 78V65l9 4.5z"></path><path fill="#825012" d="M28 81l-7-3.5v-11l7 3.5z"></path><path fill="#39C" d="M22 77l5 2.5v-9L22 68z"></path><path d="M27 77.5v-7L22 68z" opacity=".15"></path><path fill="#825012" d="M22 71l5 2.5v1L22 72z"></path><path d="M27 71.5L22 69v-1l5 2.5z" opacity=".15"></path><path fill="#825012" d="M24 68l1 .5v10l-1-.5z"></path><path d="M22 77V67l-1-.5v11l7 3.5v-1z" opacity=".3"></path></g><g><path fill="#FFF" d="M43 89.5L34 85V72l9 4.5z"></path><path fill="#825012" d="M42 88l-7-3.5v-11l7 3.5z"></path><path fill="#39C" d="M36 84l5 2.5v-9L36 75z"></path><path d="M41 84.5v-7L36 75z" opacity=".15"></path><path fill="#825012" d="M36 78l5 2.5v1L36 79z"></path><path d="M41 78.5L36 76v-1l5 2.5z" opacity=".15"></path><path fill="#825012" d="M38 75l1 .5v10l-1-.5z"></path><path d="M36 84V74l-1-.5v11l7 3.5v-1z" opacity=".3"></path></g><g><path fill="#FFF" d="M43 104.5l-9-4.5V87l9 4.5z"></path><path fill="#825012" d="M42 103l-7-3.5v-11l7 3.5z"></path><path fill="#39C" d="M36 99l5 2.5v-9L36 90z"></path><path d="M41 99.5v-7L36 90z" opacity=".15"></path><path fill="#825012" d="M36 93l5 2.5v1L36 94z"></path><path d="M41 93.5L36 91v-1l5 2.5z" opacity=".15"></path><path fill="#825012" d="M38 90l1 .5v10l-1-.5z"></path><path d="M36 99V89l-1-.5v11l7 3.5v-1z" opacity=".3"></path></g><path d="M0 52l48 24v36L0 88z" opacity=".06"></path><g><path fill="#F8EBCB" d="M112 44L80 28 48 76v36l64-32z"></path><path fill="#FFF" d="M112 80l-2 1V43l2 1zM89 86.5l12-6v-13l-12 6z"></path><path fill="#825012" d="M90 85l10-5V69l-10 5z"></path><path fill="#39C" d="M99 79.5l-8 4v-9l8-4z"></path><path d="M91 81.5v-7l8-4z" opacity=".15"></path><path fill="#825012" d="M99 73.5l-8 4v1l8-4z"></path><path d="M91 75.5l8-4v-1l-8 4z" opacity=".15"></path><path fill="#825012" d="M97 70.5l-1 .5v10l1-.5zM94 72l-1 .5v10l1-.5z"></path><path d="M99 79.5v-10l1-.5v11l-10 5v-1z" opacity=".3"></path><path fill="#FFF" d="M89 71.5l12-6v-13l-12 6z"></path><path fill="#825012" d="M90 70l10-5V54l-10 5z"></path><path fill="#39C" d="M99 64.5l-8 4v-9l8-4z"></path><path d="M91 66.5v-7l8-4z" opacity=".15"></path><path fill="#825012" d="M99 58.5l-8 4v1l8-4z"></path><path d="M91 60.5l8-4v-1l-8 4z" opacity=".15"></path><path fill="#825012" d="M97 55.5l-1 .5v10l1-.5zM94 57l-1 .5v10l1-.5z"></path><path d="M99 64.5v-10l1-.5v11l-10 5v-1z" opacity=".3"></path><g><path fill="#FFF" d="M59 101.5l12-6v-13l-12 6z"></path><path fill="#825012" d="M60 100l10-5V84l-10 5z"></path><path fill="#39C" d="M69 94.5l-8 4v-9l8-4z"></path><path d="M61 96.5v-7l8-4z" opacity=".15"></path><path fill="#825012" d="M69 88.5l-8 4v1l8-4z"></path><path d="M61 90.5l8-4v-1l-8 4z" opacity=".15"></path><path fill="#825012" d="M67 85.5l-1 .5v10l1-.5zM64 87l-1 .5v10l1-.5z"></path><path d="M69 94.5v-10l1-.5v11l-10 5v-1z" opacity=".3"></path></g><g><path fill="#FFF" d="M59 86.5l12-6v-13l-12 6z"></path><path fill="#825012" d="M60 85l10-5V69l-10 5z"></path><path fill="#39C" d="M69 79.5l-8 4v-9l8-4z"></path><path d="M61 81.5v-7l8-4z" opacity=".15"></path><path fill="#825012" d="M69 73.5l-8 4v1l8-4z"></path><path d="M61 75.5l8-4v-1l-8 4z" opacity=".15"></path><path fill="#825012" d="M67 70.5l-1 .5v10l1-.5zM64 72l-1 .5v10l1-.5z"></path><path d="M69 79.5v-10l1-.5v11l-10 5v-1z" opacity=".3"></path></g><path fill="#FFF" d="M50 111l-2 1V76l2-3z"></path><path d="M50 111l60-30v-1l-60 30z" opacity=".3"></path><path fill="#FFF" d="M75 80.5l10-5v18l-10 5z"></path><path fill="#825012" d="M76 98l8-4V77l-8 4z"></path><path d="M83 93.5v-16l1-.5v17l-8 4v-1z" opacity=".3"></path><g><path fill="#FFF" d="M76 65l8-4v13l-8 4z"></path><path fill="#825012" d="M77 76.5l6-3v-11l-6 3z"></path><path d="M82 73V63l1-.5v11l-6 3v-1z" opacity=".3"></path><path fill="#39C" d="M78 75l4-2v-9l-4 2z"></path><path fill="#825012" d="M78 70l4-2v-1l-4 2z"></path><path d="M78 67l4-2v-1l-4 2z" opacity=".15"></path></g><g><path fill="#FFF" d="M76 50l8-4v13l-8 4z"></path><path fill="#825012" d="M77 61.5l6-3v-11l-6 3z"></path><path d="M82 58V48l1-.5v11l-6 3v-1z" opacity=".3"></path><path fill="#39C" d="M78 60l4-2v-9l-4 2z"></path><path fill="#825012" d="M78 55l4-2v-1l-4 2z"></path><path d="M78 52l4-2v-1l-4 2z" opacity=".15"></path></g><path d="M80 84l2-1v-1l-2 1zM77 85.5l2-1v-1l-2 1zM80 88l2-1v-1l-2 1zM77 89.5l2-1v-1l-2 1zM80 92l2-1v-1l-2 1zM77 93.5l2-1v-1l-2 1z" opacity=".3"></path></g><path fill="#762C07" d="M48 76l32-48 30 15h-1L80 29 49 76z"></path><g><path fill="#762C07" d="M48 76L0 52 32 4l48 24z"></path><path d="M48 76L0 52 32 4l48 24z" opacity=".06"></path><path fill="#FFF" d="M30.9 5.6l48 24L80 28 32 4z" opacity=".2"></path></g><path d="M48 76l32-48 32 16v36l-64 32z" opacity=".39"></path></svg>